<svg width="20" height="12" viewBox="0 0 20 12" fill="none" xmlns="http://www.w3.org/2000/svg">
<path d="M0.470341 0.969856C0.540009 0.900012 0.622773 0.844598 0.71389 0.806788C0.805008 0.768979 0.90269 0.749516 1.00134 0.749516C1.09999 0.749516 1.19767 0.768979 1.28879 0.806788C1.37991 0.844598 1.46267 0.900012 1.53234 0.969856L10.0013 9.44036L18.4703 0.969856C18.6112 0.829027 18.8022 0.74991 19.0013 0.74991C19.2005 0.74991 19.3915 0.829027 19.5323 0.969856C19.6732 1.11069 19.7523 1.30169 19.7523 1.50086C19.7523 1.70002 19.6732 1.89103 19.5323 2.03186L10.5323 11.0319C10.4627 11.1017 10.3799 11.1571 10.2888 11.1949C10.1977 11.2327 10.1 11.2522 10.0013 11.2522C9.90269 11.2522 9.80501 11.2327 9.71389 11.1949C9.62277 11.1571 9.54001 11.1017 9.47034 11.0319L0.470341 2.03186C0.400496 1.96219 0.345082 1.87942 0.307272 1.78831C0.269462 1.69719 0.25 1.59951 0.25 1.50086C0.25 1.40221 0.269462 1.30452 0.307272 1.21341C0.345082 1.12229 0.400496 1.03953 0.470341 0.969856Z" fill="#040C07"/>
</svg>
