<svg width="24" height="24" viewBox="0 0 24 24" fill="none" xmlns="http://www.w3.org/2000/svg">
<g clip-path="url(#clip0_958_9085)">
<path fill-rule="evenodd" clip-rule="evenodd" d="M5.07323 4.92506C4.68305 5.31592 4.6836 5.94909 5.07446 6.33927L10.7365 11.9914L5.07624 17.6615C4.68606 18.0524 4.68661 18.6856 5.07747 19.0758C5.46834 19.4659 6.1015 19.4654 6.49168 19.0745L12.1519 13.4044L17.8135 19.0561C18.2043 19.4463 18.8375 19.4457 19.2277 19.0549C19.6179 18.664 19.6173 18.0308 19.2265 17.6407L13.5649 11.989L19.2085 6.33552C19.5987 5.94465 19.5981 5.31149 19.2073 4.9213C18.8164 4.53112 18.1832 4.53167 17.7931 4.92254L12.1495 10.576L6.48744 4.92383C6.09658 4.53364 5.46342 4.5342 5.07323 4.92506Z" fill="#040C07"/>
</g>
<defs>
<clipPath id="clip0_958_9085">
<rect width="24" height="24" fill="white"/>
</clipPath>
</defs>
</svg>
