<svg width="319" height="197" viewBox="0 0 319 197" fill="none" xmlns="http://www.w3.org/2000/svg">
<path d="M423.707 1.99968L420.793 26.1137L416.335 41.8512L398.982 64.4484L381.897 77.6106L362.062 89.6202L338.497 95.5806L314.982 97.3391L290.631 96.7678L269.222 95.7141L246.927 96.5323L219.317 108.583L198.984 121.375L183.209 138.186L172.465 155.022L162.543 167.96L150.676 175.287L138.644 179.525L120.495 176.471L105.387 171.819L89.0794 167.592L72.3252 165.978L43.1951 165.004L27.9938 171.788L13.8909 183.051L1.7158 194.685M412.635 48.3622L398.983 64.4481L381.898 77.6103" stroke="#F17D34" stroke-width="3" stroke-linecap="round" stroke-dasharray="10 10"/>
</svg>
