<svg width="20" height="12" viewBox="0 0 20 12" fill="none" xmlns="http://www.w3.org/2000/svg">
<path d="M19.5316 11.0319C19.4619 11.1017 19.3792 11.1571 19.2881 11.1949C19.1969 11.2327 19.0993 11.2522 19.0006 11.2522C18.902 11.2522 18.8043 11.2327 18.7132 11.1949C18.622 11.1571 18.5393 11.1017 18.4696 11.0319L10.0006 2.56135L1.53161 11.0319C1.39078 11.1727 1.19978 11.2518 1.00061 11.2518C0.801449 11.2518 0.610443 11.1727 0.469612 11.0319C0.328783 10.891 0.249666 10.7 0.249666 10.5009C0.249666 10.3017 0.328783 10.1107 0.469612 9.96985L9.46961 0.969852C9.53928 0.900007 9.62205 0.844593 9.71316 0.806783C9.80428 0.768973 9.90196 0.749512 10.0006 0.749512C10.0993 0.749512 10.1969 0.768973 10.2881 0.806783C10.3792 0.844593 10.4619 0.900007 10.5316 0.969852L19.5316 9.96985C19.6015 10.0395 19.6569 10.1223 19.6947 10.2134C19.7325 10.3045 19.752 10.4022 19.752 10.5009C19.752 10.5995 19.7325 10.6972 19.6947 10.7883C19.6569 10.8794 19.6015 10.9622 19.5316 11.0319Z" fill="#040C07"/>
</svg>
