<svg width="86" height="947" viewBox="0 0 86 947" fill="none" xmlns="http://www.w3.org/2000/svg">
<circle cx="31.3965" cy="230" r="12" fill="#F17D34"/>
<circle cx="30.5" cy="31" r="12" fill="#F17D34"/>
<circle cx="36.3667" cy="397" r="12" fill="#F17D34"/>
<circle cx="56.2485" cy="566" r="12" fill="#F17D34"/>
<circle cx="73.1479" cy="720" r="12" fill="#F17D34"/>
<path d="M60.1538 945C44.2485 902 69.1006 968 35.7988 863C24.3669 836.999 73.627 759.349 73.5739 728.5C73.5218 697.651 35.7878 659.349 35.7988 628.5C35.8089 597.652 73.5639 544.849 73.5739 514C73.585 483.151 35.8509 445.349 35.7988 414.5C35.7457 383.652 73.3746 342.349 73.5739 311.5C73.7733 280.652 32.0699 245.849 31.3255 215C30.58 184.152 61.8862 129.849 64.6666 99.0002C67.1124 92.0002 46.7337 43.5002 2 2.00024" stroke="#F17D34" stroke-width="3" stroke-miterlimit="5.77019" stroke-linecap="round" stroke-linejoin="round" stroke-dasharray="10 10"/>
</svg>
